<?xml version="1.0" standalone="no"?>
<!DOCTYPE svg PUBLIC "-//W3C//DTD SVG 20010904//EN"
 "http://www.w3.org/TR/2001/REC-SVG-20010904/DTD/svg10.dtd">
<svg version="1.0" xmlns="http://www.w3.org/2000/svg"
 width="500.000000pt" height="500.000000pt" viewBox="0 0 500.000000 500.000000"
 preserveAspectRatio="xMidYMid meet">
<metadata>
Created by potrace 1.15, written by Peter Selinger 2001-2017
</metadata>
<g transform="translate(0.000000,500.000000) scale(0.100000,-0.100000)"
fill="#000000" stroke="none">
<path d="M3378 4273 c-89 -98 -204 -221 -253 -273 -114 -120 -610 -652 -695
-745 -35 -38 -157 -169 -270 -290 -260 -277 -300 -321 -300 -326 0 -3 109 12
242 32 134 21 243 37 244 36 1 -1 -140 -211 -313 -465 -173 -255 -313 -465
-311 -467 3 -3 432 52 461 59 11 3 15 0 10 -7 -4 -7 -85 -136 -181 -287 -97
-151 -214 -338 -262 -415 -48 -77 -148 -236 -223 -352 -74 -117 -132 -213
-128 -213 4 0 128 125 276 278 148 152 352 363 454 467 102 105 247 253 321
330 74 77 237 245 363 373 126 128 227 235 224 238 -5 5 -294 -17 -436 -33
l-53 -6 59 74 c145 182 551 697 642 817 30 39 59 72 63 72 4 0 8 5 8 11 0 6
-8 9 -17 6 -137 -39 -576 -157 -578 -155 -2 2 47 89 109 193 353 597 406 688
406 691 0 3 12 23 27 47 14 23 78 130 141 237 63 107 123 207 134 223 11 15
15 27 10 27 -6 0 -84 -80 -174 -177z"/>
<path d="M2257 4015 c-338 -55 -602 -191 -848 -437 -222 -222 -368 -503 -421
-813 -27 -156 -21 -415 12 -570 74 -347 281 -669 568 -885 72 -54 79 -57 84
-37 3 13 100 189 121 220 10 15 9 20 -7 29 -10 6 -53 41 -95 78 -209 184 -346
426 -402 711 -16 81 -16 335 0 418 50 257 161 470 336 647 186 187 433 310
690 345 47 6 149 9 226 7 l142 -3 81 85 c44 46 96 100 114 118 17 19 32 37 32
42 0 4 -46 17 -102 30 -132 29 -398 37 -531 15z"/>
<path d="M3245 3653 l-76 -127 33 -25 c77 -57 238 -231 293 -315 341 -523 235
-1218 -244 -1610 -129 -105 -296 -188 -470 -232 -114 -29 -289 -45 -383 -35
l-67 7 -120 -120 c-67 -66 -121 -122 -121 -126 0 -4 46 -16 103 -26 140 -26
433 -26 562 -1 613 124 1080 585 1212 1197 26 121 26 458 0 580 -40 188 -126
386 -241 555 -64 95 -276 315 -358 373 l-47 32 -76 -127z"/>
</g>
</svg>
