<?xml version="1.0" standalone="no"?>
<!DOCTYPE svg PUBLIC "-//W3C//DTD SVG 20010904//EN"
 "http://www.w3.org/TR/2001/REC-SVG-20010904/DTD/svg10.dtd">
<svg version="1.0" xmlns="http://www.w3.org/2000/svg"
 width="500.000000pt" height="500.000000pt" viewBox="0 0 500.000000 500.000000"
 preserveAspectRatio="xMidYMid meet">
<metadata>
Created by potrace 1.15, written by Peter Selinger 2001-2017
</metadata>
<g transform="translate(0.000000,500.000000) scale(0.100000,-0.100000)"
fill="#000000" stroke="none">
<path d="M524 3799 c11 -91 50 -239 82 -303 41 -85 115 -148 247 -212 159 -78
93 -56 -101 33 -90 41 -166 72 -169 69 -8 -8 32 -187 64 -291 66 -211 150
-288 421 -385 51 -18 91 -35 89 -37 -9 -8 -188 62 -291 114 -59 30 -110 52
-113 50 -9 -9 59 -166 96 -224 82 -127 195 -200 389 -250 56 -14 101 -28 99
-30 -9 -9 -157 30 -258 68 -60 23 -113 39 -116 36 -11 -12 47 -113 92 -160 88
-92 237 -167 333 -167 l35 0 -60 -63 c-94 -97 -143 -184 -114 -201 8 -6 111
27 184 58 l38 17 -15 -29 c-25 -49 -49 -187 -36 -211 6 -12 14 -21 18 -21 4 0
70 54 147 120 77 66 142 120 145 120 3 0 6 -60 7 -133 4 -221 56 -461 127
-580 21 -35 39 -53 55 -55 l24 -4 -7 124 c-12 243 -16 524 -9 583 7 56 10 60
36 63 43 5 126 -23 334 -114 106 -46 198 -84 204 -84 7 0 89 34 183 76 205 90
307 126 349 122 30 -3 32 -6 40 -53 8 -51 2 -466 -10 -628 l-6 -89 24 4 c47 6
117 161 153 340 21 101 40 320 32 381 -3 26 -2 47 2 47 4 0 70 -54 147 -120
77 -65 146 -119 152 -120 7 0 15 11 19 25 7 29 -19 163 -40 205 l-14 30 36
-16 c72 -31 175 -64 183 -58 28 17 -31 122 -120 211 l-52 53 34 0 c91 0 231
67 316 150 54 53 122 162 109 175 -3 3 -62 -14 -129 -38 -114 -42 -237 -73
-246 -63 -3 2 11 7 29 11 82 16 209 60 272 93 84 44 153 111 200 195 37 66 90
197 82 204 -2 2 -53 -20 -112 -50 -109 -54 -253 -111 -261 -103 -2 2 20 12 49
21 96 32 252 111 299 153 79 71 136 206 185 439 10 46 15 86 11 89 -3 3 -70
-24 -149 -61 -139 -66 -218 -98 -224 -92 -2 1 32 18 74 36 180 80 258 155 306
299 27 78 64 277 54 287 -3 4 -32 -7 -64 -23 -265 -133 -735 -335 -949 -408
-194 -65 -298 -84 -341 -62 -249 129 -362 164 -569 174 -211 11 -397 -31 -599
-134 l-109 -55 -74 11 c-179 28 -529 165 -1047 408 -110 52 -201 94 -204 94
-3 0 -1 -28 2 -61z m1495 -1379 c207 -50 332 -166 348 -326 6 -52 5 -54 -23
-64 -113 -44 -305 -34 -424 21 -129 60 -190 149 -190 279 0 128 -4 124 110
116 53 -4 134 -16 179 -26z m1246 11 c10 -34 7 -160 -6 -199 -30 -93 -107
-160 -230 -203 -53 -18 -85 -22 -184 -22 -149 0 -208 16 -213 56 -8 69 51 194
119 251 93 78 269 131 451 135 48 1 58 -2 63 -18z"/>
</g>
</svg>
