<?xml version="1.0" standalone="no"?>
<!DOCTYPE svg PUBLIC "-//W3C//DTD SVG 20010904//EN"
 "http://www.w3.org/TR/2001/REC-SVG-20010904/DTD/svg10.dtd">
<svg version="1.0" xmlns="http://www.w3.org/2000/svg"
 width="500.000000pt" height="500.000000pt" viewBox="0 0 500.000000 500.000000"
 preserveAspectRatio="xMidYMid meet">
<metadata>
Created by potrace 1.15, written by Peter Selinger 2001-2017
</metadata>
<g transform="translate(0.000000,500.000000) scale(0.100000,-0.100000)"
fill="#000000" stroke="none">
<path d="M2260 3930 c-467 -83 -872 -401 -1070 -841 -147 -327 -170 -701 -63
-1044 156 -502 561 -877 1077 -997 131 -30 390 -37 524 -13 614 109 1071 567
1192 1195 25 126 27 357 5 486 -107 627 -581 1110 -1193 1215 -146 24 -329 24
-472 -1z m475 -225 c379 -82 691 -323 853 -657 95 -196 132 -356 132 -569 0
-471 -255 -892 -669 -1103 -359 -183 -750 -182 -1109 4 -477 246 -736 782
-642 1324 91 521 499 925 1020 1011 103 18 314 12 415 -10z"/>
<path d="M1780 3343 c0 -5 30 -74 66 -155 l67 -148 110 0 109 0 -48 -40 c-60
-49 -114 -116 -159 -195 -105 -187 -108 -431 -8 -630 35 -68 116 -169 171
-211 l45 -34 -110 0 -111 0 -37 -87 c-21 -49 -50 -114 -66 -145 -16 -32 -29
-62 -29 -68 0 -7 235 -10 725 -10 399 0 725 2 725 4 0 2 -17 39 -38 82 -22 44
-54 112 -72 152 l-33 72 -110 0 -110 0 40 29 c102 74 209 247 238 386 45 216
-11 415 -170 604 -11 13 -40 39 -64 57 l-44 34 112 0 111 0 23 53 c12 28 43
96 69 150 27 54 48 100 48 103 0 7 -1450 4 -1450 -3z m791 -433 c181 -35 315
-172 349 -359 53 -293 -233 -563 -516 -487 -201 53 -324 213 -324 423 0 202
125 364 320 415 78 20 100 21 171 8z"/>
</g>
</svg>
