<?xml version="1.0" standalone="no"?>
<!DOCTYPE svg PUBLIC "-//W3C//DTD SVG 20010904//EN"
 "http://www.w3.org/TR/2001/REC-SVG-20010904/DTD/svg10.dtd">
<svg version="1.0" xmlns="http://www.w3.org/2000/svg"
 width="500.000000pt" height="500.000000pt" viewBox="0 0 500.000000 500.000000"
 preserveAspectRatio="xMidYMid meet">
<metadata>
Created by potrace 1.15, written by Peter Selinger 2001-2017
</metadata>
<g transform="translate(0.000000,500.000000) scale(0.100000,-0.100000)"
fill="#000000" stroke="none">
<path d="M2388 4033 c-27 -2 -48 -7 -48 -11 0 -4 -12 -7 -27 -8 -16 0 -50 -4
-78 -9 -27 -4 -61 -9 -75 -10 -14 -2 -33 -6 -42 -10 -9 -4 -22 -4 -28 0 -5 3
-10 2 -10 -4 0 -5 -15 -11 -32 -13 -18 -2 -32 -8 -31 -14 1 -7 -6 -10 -17 -7
-12 3 -20 0 -20 -7 0 -7 -8 -10 -20 -7 -11 3 -26 -1 -34 -8 -7 -8 -16 -12 -19
-9 -7 8 -92 -32 -113 -53 -10 -10 -22 -18 -28 -19 -19 -1 -79 -33 -131 -69
-84 -58 -94 -67 -92 -78 1 -6 -5 -11 -15 -12 -23 0 -70 -43 -62 -57 4 -6 3 -9
-2 -5 -14 8 -75 -45 -78 -68 -2 -11 -8 -20 -14 -20 -18 0 -52 -33 -52 -50 0
-8 -5 -15 -11 -15 -5 0 -7 -5 -3 -12 4 -6 3 -8 -3 -5 -9 5 -47 -35 -52 -55 -1
-4 -13 -20 -26 -34 -14 -15 -25 -33 -25 -39 0 -7 -7 -16 -16 -19 -8 -3 -12
-10 -9 -16 3 -5 1 -10 -4 -10 -6 0 -11 -9 -11 -19 0 -30 -11 -52 -23 -44 -7 4
-8 0 -3 -13 4 -10 4 -15 0 -11 -9 9 -37 -30 -29 -42 3 -5 -2 -16 -11 -25 -8
-9 -12 -20 -9 -26 3 -5 1 -10 -5 -10 -7 0 -9 -8 -5 -21 5 -16 4 -19 -6 -14 -9
6 -11 3 -6 -8 4 -10 2 -17 -4 -17 -6 0 -9 -9 -6 -19 3 -15 1 -18 -11 -14 -11
5 -14 2 -9 -9 3 -9 3 -19 -1 -22 -7 -7 -13 -31 -15 -58 -1 -10 -5 -18 -10 -18
-5 0 -6 -7 -3 -16 3 -9 3 -21 -1 -27 -5 -7 -9 -21 -10 -32 -4 -37 -11 -80 -24
-144 -9 -50 -9 -69 0 -84 8 -11 8 -16 2 -12 -8 4 -11 -20 -11 -75 0 -55 3 -79
11 -75 6 4 5 -2 -2 -13 -10 -16 -10 -30 -1 -69 7 -26 14 -61 16 -78 2 -16 8
-46 12 -65 4 -19 7 -47 7 -62 0 -16 3 -28 6 -28 4 0 8 -17 8 -37 1 -21 6 -39
12 -41 5 -2 7 -11 4 -19 -5 -12 -2 -15 9 -11 11 5 14 0 10 -19 -4 -19 -2 -24
8 -18 9 5 10 2 5 -15 -4 -12 -3 -20 1 -17 5 3 10 -6 11 -20 0 -14 7 -29 14
-34 7 -4 10 -11 6 -15 -9 -9 34 -85 44 -78 5 3 6 -3 2 -12 -5 -13 -3 -15 7 -9
8 5 11 4 6 -3 -7 -12 13 -62 26 -62 5 0 6 -4 3 -10 -3 -5 -2 -10 3 -10 5 0 15
-11 22 -25 7 -13 16 -22 20 -20 5 3 11 -2 14 -11 4 -10 2 -13 -7 -8 -12 8 -1
-7 37 -53 10 -12 23 -20 27 -17 5 3 6 -3 2 -12 -5 -13 -3 -15 7 -9 8 5 11 4 6
-3 -6 -10 189 -212 203 -210 19 2 31 -3 26 -11 -5 -10 47 -55 66 -57 5 -1 14
-2 20 -3 5 0 7 -5 4 -11 -3 -5 -2 -10 4 -10 5 0 16 -6 23 -14 21 -20 75 -46
82 -39 3 4 6 1 6 -6 0 -7 5 -9 10 -6 6 3 10 2 10 -4 0 -16 88 -61 127 -65 12
-1 29 -8 37 -15 8 -7 20 -10 26 -6 5 3 10 1 10 -6 0 -6 8 -9 20 -6 11 3 18 1
15 -3 -8 -13 9 -20 55 -25 22 -2 48 -9 59 -14 10 -6 20 -8 23 -6 2 3 38 -2 79
-10 104 -22 182 -30 274 -30 67 0 200 10 200 15 0 1 17 4 38 6 22 3 64 11 95
19 31 8 69 15 84 15 33 0 79 20 72 31 -3 5 2 6 11 2 10 -3 20 -1 24 6 4 7 19
13 32 15 58 6 156 53 167 78 2 4 14 8 27 8 13 0 36 11 52 24 15 12 39 29 53
36 43 22 100 71 94 81 -4 8 8 13 27 11 4 -1 52 44 108 99 63 62 101 107 101
120 0 11 4 18 9 15 5 -4 24 13 43 36 18 23 27 39 21 35 -9 -6 -11 -3 -7 7 3 9
9 14 13 11 4 -2 16 10 26 28 10 18 25 38 32 45 7 7 13 24 13 37 0 12 6 25 13
28 16 6 42 59 58 119 7 26 17 44 22 41 5 -3 6 4 2 17 -5 15 -4 20 4 16 7 -4
11 1 11 13 0 12 5 21 11 21 6 0 9 6 6 14 -3 8 -2 16 4 18 5 2 11 30 14 62 3
33 8 62 10 66 2 4 7 21 10 38 11 67 15 88 23 132 13 69 15 250 3 250 -6 0 -7
11 -1 29 5 18 3 51 -6 90 -8 34 -12 66 -9 71 3 5 0 12 -6 15 -6 4 -8 18 -5 31
4 15 2 24 -5 24 -7 0 -9 9 -5 25 4 14 3 25 -1 25 -5 0 -9 14 -10 32 -1 17 -7
36 -12 41 -5 5 -7 16 -3 25 4 11 1 14 -10 10 -11 -5 -14 -1 -11 16 3 13 -2 28
-11 35 -9 8 -16 26 -16 42 0 16 -5 29 -11 29 -6 0 -9 7 -5 15 3 8 1 15 -4 15
-6 0 -9 3 -8 8 1 4 -5 21 -15 37 -9 17 -16 26 -17 20 -1 -20 -20 20 -20 43 0
12 -5 22 -11 22 -5 0 -7 5 -4 10 3 6 -1 13 -9 16 -9 3 -16 12 -16 19 0 6 -11
24 -25 39 -13 14 -22 26 -19 26 3 0 -7 15 -22 33 -15 17 -28 30 -30 27 -2 -3
-16 15 -32 40 -38 60 -182 201 -201 198 -9 -2 -15 2 -14 8 3 13 -29 44 -49 48
-28 6 -48 18 -42 27 3 5 -1 9 -9 9 -8 0 -22 9 -32 20 -10 11 -21 17 -26 15 -4
-3 -14 1 -22 9 -8 8 -17 12 -21 9 -3 -4 -6 -1 -6 6 0 8 -6 11 -17 7 -10 -4
-14 -4 -10 0 11 12 -106 71 -130 66 -7 -2 -13 1 -13 6 0 6 -7 13 -16 16 -9 3
-12 2 -8 -5 3 -6 -8 -3 -25 6 -17 9 -36 13 -42 10 -5 -4 -8 -1 -7 6 2 8 -15
16 -42 21 -25 5 -52 12 -60 15 -8 3 -28 5 -44 4 -15 -2 -26 1 -23 6 4 5 -11
10 -31 11 -56 1 -119 9 -130 16 -13 8 -195 15 -254 9z m345 -298 c26 -4 47
-11 47 -15 0 -4 19 -10 43 -14 48 -7 199 -56 207 -66 3 -4 32 -19 65 -34 33
-15 67 -34 76 -42 19 -17 63 29 -506 -534 l-170 -168 -87 86 c-48 48 -200 199
-338 336 -138 136 -250 249 -248 250 2 1 21 14 43 28 68 45 227 115 300 132
39 9 79 21 90 25 63 27 348 36 478 16z m859 -602 c17 -38 37 -71 42 -75 6 -4
7 -8 3 -8 -5 0 -2 -6 6 -14 8 -8 24 -47 37 -88 13 -40 26 -75 29 -78 12 -10
41 -148 52 -245 6 -55 8 -143 5 -195 -7 -94 -41 -286 -55 -305 -4 -5 -18 -41
-31 -80 -12 -38 -30 -81 -40 -95 -9 -14 -24 -40 -33 -57 -39 -76 -49 -93 -54
-93 -5 0 -281 278 -601 603 l-94 95 349 351 c191 193 349 351 350 351 1 0 17
-30 35 -67z m-1789 -304 l328 -330 -63 -65 c-35 -36 -184 -188 -332 -337 -250
-253 -270 -270 -279 -249 -6 12 -14 22 -19 22 -5 0 -6 5 -3 10 3 6 1 10 -4 10
-6 0 -11 4 -11 9 0 4 -14 39 -32 77 -17 38 -32 71 -33 74 -1 3 -7 18 -14 34
-16 40 -51 200 -51 236 0 16 -4 30 -10 30 -6 0 -10 57 -10 150 0 83 4 150 9
150 4 0 11 24 14 53 8 74 49 237 59 237 5 0 6 5 3 10 -3 6 -1 10 4 10 6 0 11
5 11 11 0 18 53 133 65 141 5 4 7 8 3 8 -8 0 23 38 32 39 3 1 153 -148 333
-330z m1039 -1039 c264 -263 338 -343 330 -353 -6 -7 -39 -26 -74 -42 -35 -17
-65 -33 -68 -37 -8 -10 -101 -42 -170 -58 -30 -7 -59 -16 -65 -20 -23 -19
-181 -32 -317 -27 -154 5 -196 10 -225 26 -10 6 -55 19 -101 30 -80 19 -233
88 -298 134 l-32 22 333 333 c184 182 336 332 340 332 3 0 160 -153 347 -340z"/>
</g>
</svg>
