<?xml version="1.0" standalone="no"?>
<!DOCTYPE svg PUBLIC "-//W3C//DTD SVG 20010904//EN"
 "http://www.w3.org/TR/2001/REC-SVG-20010904/DTD/svg10.dtd">
<svg version="1.0" xmlns="http://www.w3.org/2000/svg"
 width="1600.000000pt" height="656.000000pt"
 preserveAspectRatio="xMidYMid meet">
<metadata>
Created by potrace 1.15, written by Peter Selinger 2001-2017
</metadata>
<g transform="translate(0.000000,656.000000) scale(0.100000,-0.100000)"
fill="#ffffff" stroke="none">
<path d="M4210 6391 c-827 -355 -1522 -764 -2125 -1251 -812 -656 -1425 -1447
-1753 -2260 -88 -220 -173 -501 -188 -626 l-6 -49 119 122 c372 384 771 713
1118 922 430 260 836 357 1150 277 315 -81 565 -310 740 -678 53 -112 115
-280 115 -311 0 -9 4 -18 8 -21 5 -3 82 24 171 59 376 149 811 269 1156 319
204 30 366 39 584 33 306 -8 498 -40 769 -129 644 -211 1174 -703 1536 -1427
167 -332 293 -696 367 -1055 27 -133 39 -179 39 -151 0 33 68 330 105 459 244
850 686 1513 1270 1904 219 147 546 285 805 340 336 72 723 81 1105 26 345
-50 780 -170 1156 -319 89 -35 166 -62 171 -59 4 3 8 12 8 21 0 31 62 199 115
311 139 291 333 504 560 613 356 172 808 100 1325 -208 339 -203 751 -542
1123 -926 l119 -122 -6 49 c-8 69 -58 259 -101 391 -143 431 -403 918 -710
1330 -741 996 -1831 1805 -3255 2416 -144 62 -207 84 -211 76 -4 -7 -80 -208
-170 -447 -89 -239 -166 -439 -170 -444 -5 -5 -559 -136 -1231 -291 -1051
-241 -1224 -279 -1230 -265 -5 8 -60 244 -123 524 -63 280 -117 512 -120 514
-3 3 -7 3 -9 1 -2 -2 -64 -143 -139 -314 -74 -170 -140 -322 -147 -336 -11
-23 -25 -29 -129 -53 l-117 -27 -116 27 c-101 24 -118 30 -128 52 -6 14 -72
165 -147 336 -75 171 -137 313 -139 315 -2 2 -6 2 -9 -1 -3 -2 -57 -234 -120
-514 -63 -280 -118 -516 -123 -524 -6 -14 -179 24 -1230 265 -672 155 -1226
286 -1231 291 -4 5 -81 205 -170 444 -90 239 -166 440 -170 447 -4 8 -67 -14
-211 -76z"/>
</g>
</svg>
