<?xml version="1.0" standalone="no"?>
<!DOCTYPE svg PUBLIC "-//W3C//DTD SVG 20010904//EN"
 "http://www.w3.org/TR/2001/REC-SVG-20010904/DTD/svg10.dtd">
<svg version="1.0" xmlns="http://www.w3.org/2000/svg"
 width="500.000000pt" height="500.000000pt" viewBox="0 0 500.000000 500.000000"
 preserveAspectRatio="xMidYMid meet">
<metadata>
Created by potrace 1.15, written by Peter Selinger 2001-2017
</metadata>
<g transform="translate(0.000000,500.000000) scale(0.100000,-0.100000)"
fill="#000000" stroke="none">
<path d="M1030 3793 c-113 -115 -272 -277 -355 -360 l-149 -153 40 -42 c23
-24 192 -218 376 -433 832 -969 1560 -1810 1568 -1813 4 -2 401 453 881 1010
480 557 923 1070 984 1141 60 70 111 131 113 136 1 4 -154 168 -345 364 l-347
357 -1281 0 -1280 0 -205 -207z m3043 -198 l309 -315 -54 -63 c-30 -34 -421
-487 -868 -1007 -448 -520 -844 -980 -881 -1022 l-68 -76 -548 636 c-301 350
-720 836 -930 1080 -211 244 -383 446 -383 451 0 4 139 149 308 321 l309 315
1249 -2 1248 -3 309 -315z"/>
<path d="M3100 3780 c0 -3 36 -42 79 -87 44 -44 92 -103 107 -130 15 -26 29
-50 31 -52 1 -2 17 8 35 21 48 37 89 118 95 188 l6 59 -177 3 c-97 2 -176 1
-176 -2z"/>
<path d="M1096 3535 c-130 -135 -236 -249 -234 -254 3 -9 317 -371 321 -371 1
0 3 44 3 98 4 285 171 543 462 713 37 21 75 39 84 39 10 0 18 5 18 10 0 6 -76
10 -208 10 l-207 0 -239 -245z"/>
<path d="M2152 3739 c-343 -72 -510 -249 -413 -437 50 -97 171 -160 366 -193
42 -7 215 -13 440 -14 279 -2 399 -6 486 -19 289 -40 488 -137 587 -285 22
-33 42 -66 44 -73 3 -8 16 1 35 22 195 226 459 526 465 528 20 9 33 -6 -281
315 -85 86 -156 157 -158 157 -2 0 -3 -106 -3 -235 l0 -235 -280 0 -280 0 -5
28 c-14 64 -60 167 -100 220 -62 86 -166 155 -290 195 -155 50 -441 62 -613
26z"/>
<path d="M1360 2704 c0 -3 9 -13 19 -22 11 -10 101 -111 201 -227 101 -115
189 -211 196 -213 8 -2 14 5 14 16 0 27 46 71 100 95 35 16 65 20 135 20 156
-1 292 -61 397 -174 l56 -62 134 7 c361 20 568 71 645 160 70 79 30 162 -99
205 -135 44 -324 62 -898 86 -518 21 -703 42 -843 95 -59 22 -57 22 -57 14z"/>
<path d="M2925 1980 c-225 -46 -542 -50 -800 -11 -66 10 -122 17 -124 15 -5
-4 3 -13 281 -330 l233 -266 38 43 c284 320 494 569 480 568 -10 -1 -58 -10
-108 -19z"/>
</g>
</svg>
