<?xml version="1.0" standalone="no"?>
<!DOCTYPE svg PUBLIC "-//W3C//DTD SVG 20010904//EN"
 "http://www.w3.org/TR/2001/REC-SVG-20010904/DTD/svg10.dtd">
<svg version="1.0" xmlns="http://www.w3.org/2000/svg"
 width="500.000000pt" height="500.000000pt" viewBox="0 0 500.000000 500.000000"
 preserveAspectRatio="xMidYMid meet">
<metadata>
Created by potrace 1.15, written by Peter Selinger 2001-2017
</metadata>
<g transform="translate(0.000000,500.000000) scale(0.100000,-0.100000)"
fill="#000000" stroke="none">
<path d="M2345 3117 c-82 -155 -156 -296 -165 -314 -8 -18 -17 -32 -20 -32 -3
0 -48 88 -100 196 -111 229 -136 268 -193 294 -40 18 -76 19 -741 19 -612 0
-697 -2 -692 -15 9 -25 122 -189 143 -207 52 -47 64 -48 573 -48 522 0 520 0
571 -56 15 -16 104 -177 200 -359 95 -181 178 -338 185 -348 11 -16 35 20 205
303 106 176 195 317 199 313 4 -4 92 -149 195 -321 l187 -314 17 29 c9 15 96
178 191 362 155 297 179 337 214 360 l40 26 505 5 c549 5 535 4 587 62 25 27
122 171 130 193 5 13 -76 15 -692 15 -665 0 -701 -1 -741 -19 -57 -26 -82 -65
-193 -294 -52 -108 -97 -196 -100 -196 -3 0 -12 14 -20 32 -56 117 -317 596
-325 596 -5 0 -77 -127 -160 -282z"/>
<path d="M650 2883 c1 -5 33 -55 73 -113 111 -162 63 -150 600 -150 247 0 447
3 445 8 -34 73 -101 192 -120 209 -56 52 -63 53 -548 53 -247 0 -450 -3 -450
-7z"/>
<path d="M3410 2874 c-19 -8 -43 -23 -53 -32 -16 -14 -117 -201 -117 -217 0
-3 201 -5 448 -5 536 0 488 -12 599 150 40 58 72 108 73 113 0 4 -206 7 -457
7 -385 -1 -464 -3 -493 -16z"/>
<path d="M2311 2310 c-106 -177 -194 -320 -196 -318 -2 2 -56 100 -120 218
-64 118 -124 224 -133 234 -10 10 -35 27 -57 37 -37 17 -74 19 -452 19 -363 0
-447 -5 -405 -22 5 -1 36 -43 69 -93 104 -155 104 -155 383 -155 227 0 254 -5
298 -53 13 -14 110 -179 216 -368 105 -188 196 -344 201 -345 6 -2 53 70 105
159 52 89 137 235 190 323 l95 161 190 -323 c105 -178 194 -322 200 -320 5 1
96 157 201 345 106 189 203 354 216 368 44 48 71 53 298 53 279 0 279 0 383
155 33 50 64 92 69 93 42 17 -42 22 -404 22 -379 0 -416 -2 -453 -19 -22 -10
-47 -27 -57 -37 -9 -10 -69 -116 -133 -234 -64 -118 -118 -216 -120 -218 -2
-2 -87 138 -190 310 -104 172 -191 317 -195 321 -4 4 -93 -137 -199 -313z"/>
</g>
</svg>
